<svg xmlns="http://www.w3.org/2000/svg" viewBox="0 0 760 620" width="100%" height="100%">
<defs>
<linearGradient id="screenGrad" x1="0" y1="0" x2="0" y2="1">
<stop offset="0%" stop-color="#142a66"/>
<stop offset="100%" stop-color="#0A1640"/>
</linearGradient>
<linearGradient id="cardGlow" x1="0" y1="0" x2="1" y2="1">
<stop offset="0%" stop-color="#00D4FF" stop-opacity="0.12"/>
<stop offset="100%" stop-color="#00D4FF" stop-opacity="0"/>
</linearGradient>
</defs>

<circle cx="640" cy="80" r="160" fill="#00D4FF" opacity="0.06"/>
<circle cx="60" cy="540" r="140" fill="#00D4FF" opacity="0.05"/>

<rect x="20" y="40" width="720" height="480" rx="20" fill="url(#screenGrad)" stroke="#1B2D5C" stroke-width="1.5"/>

<rect x="20" y="40" width="720" height="48" rx="20" fill="#0C1430"/>
<rect x="20" y="68" width="720" height="20" fill="#0C1430"/>
<circle cx="50" cy="64" r="5" fill="#FF5F57"/>
<circle cx="68" cy="64" r="5" fill="#FEBC2E"/>
<circle cx="86" cy="64" r="5" fill="#28C840"/>
<text x="380" y="69" font-family="Arial,sans-serif" font-size="12" fill="#9FB4DD" text-anchor="middle">SPDigitalJourney — AI Diagnostics Console</text>

<rect x="44" y="112" width="332" height="92" rx="12" fill="#11204A" stroke="#1B2D5C" stroke-width="1"/>
<circle cx="68" cy="138" r="14" fill="#00D4FF" opacity="0.15"/>
<path d="M62 138l4 4 8-8" stroke="#00D4FF" stroke-width="2" fill="none" stroke-linecap="round" stroke-linejoin="round"/>
<text x="92" y="134" font-family="Arial,sans-serif" font-size="12" font-weight="700" fill="#fff">GBP Diagnostic Scan</text>
<text x="92" y="150" font-family="Arial,sans-serif" font-size="10" fill="#7E8FBF">3 issues found · auto-flagged</text>
<rect x="64" y="166" width="288" height="6" rx="3" fill="#1B2D5C"/>
<rect x="64" y="166" width="245" height="6" rx="3" fill="#00D4FF"/>
<text x="64" y="192" font-family="Arial,sans-serif" font-size="10" fill="#9FB4DD">85% complete</text>
<text x="352" y="192" font-family="Arial,sans-serif" font-size="10" fill="#00C781" text-anchor="end" font-weight="700">ETA 4 min</text>

<rect x="392" y="112" width="324" height="92" rx="12" fill="#11204A" stroke="#1B2D5C" stroke-width="1"/>
<circle cx="416" cy="138" r="14" fill="#00C781" opacity="0.15"/>
<path d="M410 138l4 4 8-8" stroke="#00C781" stroke-width="2" fill="none" stroke-linecap="round" stroke-linejoin="round"/>
<text x="440" y="134" font-family="Arial,sans-serif" font-size="12" font-weight="700" fill="#fff">Local Rank Check</text>
<text x="440" y="150" font-family="Arial,sans-serif" font-size="10" fill="#7E8FBF">Bengaluru North · 12 keywords</text>
<text x="416" y="186" font-family="Arial,sans-serif" font-size="22" font-weight="700" fill="#00D4FF">#2</text>
<text x="450" y="180" font-family="Arial,sans-serif" font-size="10" fill="#9FB4DD">Maps 3-pack</text>
<text x="450" y="194" font-family="Arial,sans-serif" font-size="10" fill="#00C781">↑ from #8 this month</text>

<rect x="44" y="220" width="672" height="170" rx="12" fill="#11204A" stroke="#1B2D5C" stroke-width="1"/>
<text x="68" y="248" font-family="Arial,sans-serif" font-size="12" font-weight="700" fill="#fff">Profile views — last 30 days</text>
<text x="692" y="248" font-family="Arial,sans-serif" font-size="10" fill="#00C781" text-anchor="end" font-weight="700">+186%</text>

<line x1="68" y1="354" x2="692" y2="354" stroke="#1B2D5C" stroke-width="1"/>
<polyline points="68,344 130,338 192,330 254,318 316,300 378,270 440,238 502,210 564,184 626,158 692,128" fill="none" stroke="#00D4FF" stroke-width="2.5" stroke-linecap="round" stroke-linejoin="round"/>
<polygon points="68,344 130,338 192,330 254,318 316,300 378,270 440,238 502,210 564,184 626,158 692,128 692,354 68,354" fill="url(#cardGlow)"/>
<circle cx="692" cy="128" r="5" fill="#00D4FF"/>
<circle cx="692" cy="128" r="9" fill="none" stroke="#00D4FF" stroke-width="1.5" opacity="0.5"/>

<rect x="44" y="406" width="216" height="98" rx="12" fill="#11204A" stroke="#1B2D5C" stroke-width="1"/>
<text x="64" y="430" font-family="Arial,sans-serif" font-size="10" fill="#7E8FBF">Suspension recovery</text>
<text x="64" y="460" font-family="Arial,sans-serif" font-size="20" font-weight="700" fill="#fff">47 min</text>
<text x="64" y="480" font-family="Arial,sans-serif" font-size="10" fill="#00C781">vs. 10–15 day standard</text>

<rect x="272" y="406" width="216" height="98" rx="12" fill="#11204A" stroke="#1B2D5C" stroke-width="1"/>
<text x="292" y="430" font-family="Arial,sans-serif" font-size="10" fill="#7E8FBF">Businesses scanned</text>
<text x="292" y="460" font-family="Arial,sans-serif" font-size="20" font-weight="700" fill="#fff">2,041</text>
<text x="292" y="480" font-family="Arial,sans-serif" font-size="10" fill="#00D4FF">across 100+ cities</text>

<rect x="500" y="406" width="216" height="98" rx="12" fill="#00D4FF" stroke="#00D4FF" stroke-width="1"/>
<text x="520" y="430" font-family="Arial,sans-serif" font-size="10" fill="#0A1640" opacity="0.7">Avg. response time</text>
<text x="520" y="460" font-family="Arial,sans-serif" font-size="20" font-weight="700" fill="#0A1640">&lt; 2 hrs</text>
<text x="520" y="480" font-family="Arial,sans-serif" font-size="10" fill="#0A1640" opacity="0.7">24x7, every day of the year</text>

<rect x="120" y="540" width="520" height="56" rx="28" fill="#0C1430" stroke="#1B2D5C" stroke-width="1"/>
<circle cx="156" cy="568" r="14" fill="#25D366"/>
<path d="M150 567c0-3.3 2.7-6 6-6s6 2.7 6 6-2.7 6-6 6c-1.1 0-2.1-.3-3-.8l-3.5.9.9-3.4c-.6-.8-.9-1.7-.9-2.7z" fill="#fff"/>
<text x="184" y="564" font-family="Arial,sans-serif" font-size="11" font-weight="700" fill="#fff">Hi, my GBP shows wrong hours</text>
<text x="184" y="580" font-family="Arial,sans-serif" font-size="10" fill="#00D4FF">→ Diagnosed · fix in progress · ETA 12 min</text>
</svg>
