<svg xmlns="http://www.w3.org/2000/svg" viewBox="0 0 680 480" width="100%" height="100%">
<defs>
<linearGradient id="phoneGrad" x1="0" y1="0" x2="0" y2="1">
<stop offset="0%" stop-color="#142a66"/>
<stop offset="100%" stop-color="#0A1640"/>
</linearGradient>
</defs>
<rect x="0" y="0" width="680" height="480" rx="20" fill="#0A1640"/>
<circle cx="560" cy="90" r="100" fill="#00D4FF" opacity="0.08"/>
<circle cx="100" cy="400" r="120" fill="#00D4FF" opacity="0.06"/>
<rect x="240" y="70" width="200" height="320" rx="26" fill="url(#phoneGrad)" stroke="#00D4FF" stroke-width="1.5" opacity="0.95"/>
<rect x="255" y="98" width="170" height="264" rx="10" fill="#0C1430"/>
<circle cx="340" cy="86" r="3" fill="#1B2D5C"/>
<rect x="268" y="118" width="120" height="36" rx="14" fill="#1B2D5C"/>
<text x="282" y="140" font-family="Arial,sans-serif" font-size="11.5" fill="#9FB4DD">Hi, GBP issue...</text>
<rect x="290" y="166" width="120" height="36" rx="14" fill="#00D4FF"/>
<text x="304" y="188" font-family="Arial,sans-serif" font-size="11.5" fill="#0A1640" font-weight="700">On it now ✓</text>
<rect x="268" y="214" width="100" height="36" rx="14" fill="#1B2D5C"/>
<text x="282" y="236" font-family="Arial,sans-serif" font-size="11.5" fill="#9FB4DD">Fixed already?!</text>
<rect x="300" y="262" width="110" height="36" rx="14" fill="#00D4FF"/>
<text x="314" y="284" font-family="Arial,sans-serif" font-size="11.5" fill="#0A1640" font-weight="700">Yes — done ✓</text>
<circle cx="340" cy="335" r="28" fill="#00C781"/>
<path d="M327 335l8 8 17-17" stroke="#fff" stroke-width="3.2" fill="none" stroke-linecap="round" stroke-linejoin="round"/>
<circle cx="430" cy="92" r="11" fill="#0A1640" stroke="#00D4FF" stroke-width="1.2"/>
<rect x="424" y="91" width="12" height="2" fill="#00D4FF"/>
<rect x="429" y="86" width="2" height="12" fill="#00D4FF"/>
</svg>
